<?xml version="1.0" encoding="UTF-8"?>
<!DOCTYPE svg PUBLIC "-//W3C//DTD SVG 1.1//EN" "http://www.w3.org/Graphics/SVG/1.1/DTD/svg11.dtd">
<!-- Creator: CorelDRAW X8 -->
<svg xmlns="http://www.w3.org/2000/svg" xml:space="preserve" width="120px" height="120px" version="1.1" style="shape-rendering:geometricPrecision; text-rendering:geometricPrecision; image-rendering:optimizeQuality; fill-rule:evenodd; clip-rule:evenodd"
viewBox="0 0 19 19"
 xmlns:xlink="http://www.w3.org/1999/xlink">
 <defs>
  <style type="text/css">
   <![CDATA[
    .fil0 {fill:black}
   ]]>
  </style>
 </defs>
 <g id="Capa_x0020_1">
  <metadata id="CorelCorpID_0Corel-Layer"/>
  <path id="gear.svg" class="fil0" d="M18 7l-1 0c0,0 0,-1 -1,-1l1 -1c0,-1 0,-1 0,-1l-2 -2c0,-1 -1,-1 -1,0l-1 0c0,0 -1,0 -1,0l0 -2c0,0 -1,0 -1,0l-3 0c0,0 -1,0 -1,0l0 2c0,0 -1,0 -1,0l-1 0c-1,-1 -1,-1 -1,0l-2 2c-1,0 -1,0 0,1l0 1c0,0 0,1 0,1l-2 0c0,0 0,1 0,1l0 3c0,0 0,1 0,1l2 0c0,0 0,1 0,1l0 1c-1,0 -1,1 0,1l2 2c0,0 0,0 1,0l1 -1c0,1 1,1 1,1l0 1c0,1 1,1 1,1l3 0c0,0 1,0 1,-1l0 -1c0,0 1,0 1,-1l1 1c0,0 1,0 1,0l2 -2c0,0 0,-1 0,-1l-1 -1c1,0 1,-1 1,-1l1 0c1,0 1,-1 1,-1l0 -3c0,0 0,-1 -1,-1l0 0zm-5 2c0,2 -2,4 -4,4 -1,0 -3,-2 -3,-4 0,-1 2,-3 3,-3 2,0 4,2 4,3zm0 0z"/>
 </g>
</svg>
