<?xml version="1.0" encoding="UTF-8"?>
<!DOCTYPE svg PUBLIC "-//W3C//DTD SVG 1.1//EN" "http://www.w3.org/Graphics/SVG/1.1/DTD/svg11.dtd">
<!-- Creator: CorelDRAW X8 -->
<svg xmlns="http://www.w3.org/2000/svg" xml:space="preserve" width="120px" height="120px" version="1.1" style="shape-rendering:geometricPrecision; text-rendering:geometricPrecision; image-rendering:optimizeQuality; fill-rule:evenodd; clip-rule:evenodd"
viewBox="0 0 14 14"
 xmlns:xlink="http://www.w3.org/1999/xlink">
 <defs>
  <style type="text/css">
   <![CDATA[
    .fil0 {fill:white}
   ]]>
  </style>
 </defs>
 <g id="Capa_x0020_1">
  <metadata id="CorelCorpID_0Corel-Layer"/>
  <g id="_1420892447600">
   <path class="fil0" d="M13 6c0,0 0,0 0,0l-1 -2c-1,0 -1,0 -1,0 0,0 0,1 0,1l1 1 -4 0c0,0 0,0 0,0 0,1 0,1 0,1l4 0 -1 0c0,1 0,1 0,1 0,0 0,0 0,0 0,0 1,0 1,0l1 -1c0,0 0,-1 0,-1 1,0 1,0 0,0z"/>
   <path class="fil0" d="M10 8c-1,0 -1,0 -1,0l0 3 -2 0 0 -9c0,0 0,0 -1,0l-2 -1 5 0 0 3c0,0 0,1 1,1 0,0 0,-1 0,-1l0 -3c0,-1 0,-1 0,-1l-9 0c0,0 0,0 0,0 -1,0 -1,0 -1,0 0,0 0,0 0,0 0,0 0,0 0,0 0,0 0,0 0,0 0,0 0,0 0,0 0,0 0,0 0,0 0,0 0,0 0,0 0,0 0,1 0,1 0,0 0,0 0,0l0 11c0,0 0,0 0,0l6 2c0,0 0,0 0,0 0,0 0,-1 1,-1 0,0 0,0 0,0l0 -1 3 0c0,0 0,0 0,0l0 -4c0,0 0,0 0,0z"/>
  </g>
 </g>
</svg>
