<?xml version="1.0" encoding="iso-8859-1"?>
<!-- Generator: Adobe Illustrator 19.0.0, SVG Export Plug-In . SVG Version: 6.00 Build 0)  -->
<svg version="1.1" id="Layer_1" xmlns="http://www.w3.org/2000/svg" xmlns:xlink="http://www.w3.org/1999/xlink" x="0px" y="0px"
	 viewBox="0 0 512.001 512.001" style="enable-background:new 0 0 512.001 512.001;" xml:space="preserve">
<path style="fill:#FF9B4B;" d="M441.038,144.784V119.5c0-5.929-4.85-10.779-10.778-10.779h-43.993
	c-5.929,0-10.779,4.85-10.779,10.779v25.284H441.038z"/>
<path style="opacity:0.1;enable-background:new    ;" d="M408.184,108.721h-21.918c-5.929,0-10.779,4.85-10.779,10.779v25.284
	h21.918V119.5C397.405,113.571,402.255,108.721,408.184,108.721z"/>
<path style="fill:#FF9B4B;" d="M136.871,144.784V119.5c0-5.929-4.85-10.779-10.778-10.779H82.1c-5.929,0-10.779,4.85-10.779,10.779
	v25.284H136.871z"/>
<path style="opacity:0.1;enable-background:new    ;" d="M104.016,108.721H82.1c-5.929,0-10.779,4.85-10.779,10.779v25.284h21.918
	V119.5C93.237,113.571,98.088,108.721,104.016,108.721z"/>
<path style="fill:#965930;" d="M201.14,144.784c-0.019-0.593-0.044-1.185-0.044-1.783c0-30.829,24.63-55.908,54.904-55.908
	s54.904,25.08,54.904,55.908c0,0.597-0.025,1.188-0.044,1.783h26.947c0.013-0.595,0.045-1.185,0.045-1.783
	c0-45.761-36.648-82.855-81.852-82.855s-81.852,37.094-81.852,82.855c0,0.597,0.032,1.187,0.045,1.783H201.14z"/>
<path style="fill:#D2873C;" d="M465.513,133.552H45.791c0.013,0.444-45.609,46.59-45.791,46.588v225.016
	c0.182-0.002,45.778,46.216,45.762,46.698h419.755c-0.016-0.482,46.062-46.705,46.481-46.693V180.743
	C511.581,180.756,465.485,134.196,465.513,133.552z"/>
<path style="opacity:0.1;enable-background:new    ;" d="M32.392,147.432C18.92,161.164,0.116,180.14,0,180.139v225.016
	c0.116-0.001,18.926,19.022,32.392,32.787V147.432z"/>
<g>
	<rect x="388.744" y="133.548" style="fill:#554141;" width="39.037" height="318.297"/>
	<rect x="84.579" y="133.548" style="fill:#554141;" width="39.037" height="318.297"/>
</g>
<rect x="84.579" y="133.548" style="opacity:0.1;enable-background:new    ;" width="16.169" height="318.297"/>
<g>
	<path style="fill:#FBD33B;" d="M495.831,133.552h-40.058c-1.163,4.011-1.8,8.247-1.8,12.634c0,25.003,20.269,45.271,45.272,45.271
		c4.43,0,8.708-0.648,12.755-1.835v-39.903C512,140.827,504.724,133.552,495.831,133.552z"/>
	<path style="fill:#FBD33B;" d="M0,149.72v40.106c3.834,1.055,7.867,1.63,12.036,1.63c25.002,0,45.272-20.268,45.272-45.271
		c0-4.386-0.637-8.621-1.8-12.634h-39.34C7.276,133.552,0,140.827,0,149.72z"/>
	<path style="fill:#FBD33B;" d="M12.036,394.101c-4.169,0-8.202,0.576-12.036,1.631v39.954c0,8.892,7.276,16.169,16.169,16.169
		h39.382c1.136-3.966,1.758-8.149,1.758-12.481C57.308,414.37,37.038,394.101,12.036,394.101z"/>
	<path style="fill:#FBD33B;" d="M499.245,394.101c-25.003,0-45.272,20.269-45.272,45.271c0,4.332,0.622,8.515,1.758,12.481h40.102
		c8.892,0,16.169-7.276,16.169-16.169v-39.749C507.953,394.75,503.675,394.101,499.245,394.101z"/>
</g>
<rect x="388.744" y="133.548" style="opacity:0.1;enable-background:new    ;" width="16.169" height="318.297"/>
<path style="fill:#FFFFFF;" d="M130.429,399.022c0,2.964-2.425,5.39-5.39,5.39H83.152c-2.964,0-5.39-2.425-5.39-5.39V358.36
	c0-2.964,2.425-5.39,5.39-5.39h41.887c2.964,0,5.39,2.425,5.39,5.39v40.662H130.429z"/>
<path style="opacity:0.1;enable-background:new    ;" d="M99.705,399.022V358.36c0-2.964,2.425-5.39,5.39-5.39H83.152
	c-2.964,0-5.39,2.425-5.39,5.39v40.662c0,2.964,2.425,5.39,5.39,5.39h21.943C102.13,404.413,99.705,401.987,99.705,399.022z"/>
<path style="fill:#FFFFFF;" d="M434.596,399.022c0,2.964-2.425,5.39-5.39,5.39H387.32c-2.964,0-5.39-2.425-5.39-5.39V358.36
	c0-2.964,2.425-5.39,5.39-5.39h41.887c2.964,0,5.39,2.425,5.39,5.39V399.022z"/>
<path style="opacity:0.1;enable-background:new    ;" d="M403.873,399.022V358.36c0-2.964,2.425-5.39,5.39-5.39H387.32
	c-2.964,0-5.39,2.425-5.39,5.39v40.662c0,2.964,2.425,5.39,5.39,5.39h21.943C406.298,404.413,403.873,401.987,403.873,399.022z"/>
<path style="fill:#FBD33B;" d="M297.377,279.576c-4.676,0-8.467-3.79-8.467-8.467v-61.7c0-2.134,0.806-4.188,2.256-5.753
	l18.311-19.761c1.602-1.729,3.853-2.713,6.21-2.713h20.549c2.357,0,4.608,0.983,6.21,2.713l18.31,19.761
	c1.45,1.565,2.256,3.62,2.256,5.753v61.7c0,4.676-3.791,8.467-8.467,8.467H297.377z"/>
<path style="opacity:0.1;enable-background:new    ;" d="M303.912,271.109v-61.7c0-2.134,0.806-4.188,2.256-5.753l18.311-19.761
	c1.602-1.729,3.853-2.713,6.21-2.713h-15.002c-2.357,0-4.608,0.983-6.21,2.713l-18.311,19.761c-1.45,1.565-2.256,3.62-2.256,5.753
	v61.7c0,4.676,3.79,8.467,8.467,8.467h15.002C307.702,279.576,303.912,275.785,303.912,271.109z"/>
<g>
	<path style="fill:#965930;" d="M337.278,257.616h-22.636c-4.465,0-8.084-3.62-8.084-8.084s3.62-8.084,8.084-8.084h22.636
		c4.465,0,8.084,3.62,8.084,8.084S341.743,257.616,337.278,257.616z"/>
	<path style="fill:#965930;" d="M337.278,234.981h-22.636c-4.465,0-8.084-3.62-8.084-8.084s3.62-8.084,8.084-8.084h22.636
		c4.465,0,8.084,3.62,8.084,8.084S341.743,234.981,337.278,234.981z"/>
</g>
<path style="fill:#554141;" d="M325.961,206.579c4.465,0,8.084-3.62,8.084-8.084v-64.944h-16.169v64.944
	C317.877,202.959,321.496,206.579,325.961,206.579z"/>
<g>
</g>
<g>
</g>
<g>
</g>
<g>
</g>
<g>
</g>
<g>
</g>
<g>
</g>
<g>
</g>
<g>
</g>
<g>
</g>
<g>
</g>
<g>
</g>
<g>
</g>
<g>
</g>
<g>
</g>
</svg>
