<svg height="512" viewBox="0 0 58 59" width="512" xmlns="http://www.w3.org/2000/svg"><g id="048---Microscope" fill="none" fill-rule="evenodd" transform="translate(0 -1)"><circle id="Oval" cx="32" cy="5" fill="#e64c3c" fill-rule="nonzero" r="4"/><path id="Shape" d="m37.6 11.09c-.51 0-.27.09-5.26-4.34-.386084-.37083717-.4116464-.97995032-.0579907-1.38183179s.9610757-.45397016 1.3779907-.11816821l4.6 4.09c.3117246.2749144.4209003.7139877.2742317 1.1028817-.1466686.3888939-.5185999.6465212-.9342317.6471183z" fill="#e57e25" fill-rule="nonzero"/><circle id="Oval" cx="54.5" cy="5.5" fill="#e64c3c" fill-rule="nonzero" r="3.5"/><path id="Shape" d="m48.78 11.47c-.4186996.0000322-.7930899-.2607843-.9381468-.6535538-.1450569-.3927694-.0300649-.83432369.2881468-1.1064462l5.22-4.47c.4197364-.35898507 1.0510149-.30973639 1.41.11000002.3589851.4197364.3097364 1.05101489-.11 1.40999998-5.65 4.88-5.36 4.71-5.87 4.71z" fill="#e57e25" fill-rule="nonzero"/><path id="Shape" d="m30.71 27.46-2.83 2.82c-.1877666.1893127-.4433625.2957983-.71.2957983s-.5222334-.1064856-.71-.2957983l-2.82-2.82-1.42 1.41c-.3900375.3877236-1.0199625.3877236-1.41 0l-1.42-1.41c-.1893127-.1877666-.2957983-.4433625-.2957983-.71s.1064856-.5222334.2957983-.71l-2.39-2.39c-.99111 1.0938402-2.504075 1.5529529-3.9359272 1.1943661-1.4318523-.3585867-2.5498522-1.4765866-2.9084389-2.9084389-.35858676-1.4318522.1005259-2.9448172 1.1943661-3.9359272l-6.81-6.81c-.38772359-.3900375-.38772359-1.0199625 0-1.41l.71-.71-3.53-3.53c-.18931265-.1877666-.29579832-.44336246-.29579832-.71s.10648567-.5222334.29579832-.71l2.82-2.83c.18907174-.20195032.45335572-.31655285.73-.31655285s.54092826.11460253.73.31655285l3.49 3.54.71-.71c.1877666-.18931265.4433625-.29579832.71-.29579832s.5222334.10648567.71.29579832l14.84 14.88c.1877666-.1893127.4433625-.2957983.71-.2957983s.5222334.1064856.71.2957983l1.41 1.41c.1893127.1877666.2957983.4433625.2957983.71s-.1064856.5222334-.2957983.71l-1.41 1.41 2.83 2.76c.2019503.1890717.3165529.4533557.3165529.73s-.1146026.5409283-.3165529.73z" fill="#7f8c8d" fill-rule="nonzero"/><path id="Shape" d="m8 51h26c2.7614237 0 5 2.2385763 5 5v3h-36v-3c0-2.7614237 2.23857625-5 5-5z" fill="#3b97d3" fill-rule="nonzero"/><path id="Shape" d="m30.73 41c-2.6903528 3.7835334-7.3217502 5.6757874-11.8918051 4.8586448-4.5700549-.8171425-8.2587682-4.1970627-9.47132295-8.6784502-1.21255472-4.4813876.26861632-9.260153 3.80312805-12.2701946l-3.17-3.91c-5.30310319 4.518465-7.31243889 11.8152834-5.07002117 18.4115697 2.24241771 6.5962862 8.28262127 11.1566513 15.24083817 11.5068616 6.9582169.3502102 13.4257869-3.5806329 16.319183-9.9184313z" fill="#285680" fill-rule="nonzero"/><path id="Shape" d="m17.72 22.46h-.01" stroke="#000" stroke-linecap="round" stroke-linejoin="round" stroke-width="2"/><g fill-rule="nonzero"><path id="Shape" d="m18 21c-.0017271 1.8403652-1.2589565 3.4420605-3.0462416 3.8808758-1.7872852.4388154-3.6433428-.3985039-4.4971907-2.0288078-.85384791-1.6303039-.48511508-3.6328247.8934323-4.852068 1.1790554-1.0428045 2.8600815-1.2971767 4.2948795-.6498995 1.4347979.6472773 2.3565977 2.0758567 2.3551205 3.6498995z" fill="#35495e"/><path id="Shape" d="m26.46 19-7.07 7-2.39-2.35c1.4319504-1.5803745 1.3722227-4.0062434-.135767-5.514233-1.5079896-1.5079897-3.9338585-1.5677174-5.514233-.135767l-6.81-6.81c-.38772359-.3900375-.38772359-1.0199625 0-1.41l5.66-5.66c.1877666-.18931265.4433625-.29579832.71-.29579832s.5222334.10648567.71.29579832z" fill="#3b97d3"/><path id="Shape" d="m29.29 21.8c-4 4-4.56 4.57-7.07 7.07-.3900375.3877236-1.0199625.3877236-1.41 0l-1.42-1.41c-.1893127-.1877666-.2957983-.4433625-.2957983-.71s.1064856-.5222334.2957983-.71l7.07-7.04c.1877666-.1893127.4433625-.2957983.71-.2957983s.5222334.1064856.71.2957983l1.41 1.41c.3746537.3875966.3746537 1.0024034 0 1.39z" fill="#2980ba"/><path id="Shape" d="m41 60h-40c-.55228475 0-1-.4477153-1-1s.44771525-1 1-1h40c.5522847 0 1 .4477153 1 1s-.4477153 1-1 1z" fill="#35495e"/><path id="Shape" d="m45.93 23.44c-3.7480777 1.4724002-8.0063837-.0706343-9.9412011-3.6022813s-.9429968-7.9509701 2.3154484-10.31710268c3.2584453-2.36613257 7.7677453-1.94146928 10.5271576.99139498 2.7594123 2.9328642 2.9087327 7.4596544.3485951 10.567989z" fill="#f29c1f"/><path id="Shape" d="m48 26.31-2.83-3.91c-.4287187-.5805566-.5151479-1.3457317-.2267305-2.0072913s.9078639-1.118997 1.625-1.2 1.4230118.2267347 1.8517305.8072913l3 4.08z" fill="#e57e25"/><path id="Shape" d="m39 17c-.5522847 0-1-.4477153-1-1 0-3.68 3.53-4.9 3.68-4.95.5246705-.1767311 1.0932689.1053295 1.27.63s-.1053295 1.0932689-.63 1.27c-1.3204351.4519186-2.2369682 1.6568435-2.32 3.05 0 .5522847-.4477153 1-1 1z" fill="#fac176"/><path id="Shape" d="m40 41h-11c-1.1045695 0-2-.8954305-2-2s.8954305-2 2-2h11c1.1045695 0 2 .8954305 2 2s-.8954305 2-2 2z" fill="#2980ba"/><circle id="Oval" cx="34.5" cy="34.5" fill="#f29c1f" r="2.5"/><circle id="Oval" cx="52.5" cy="29.5" fill="#e64c3c" r="5.5"/></g></g></svg>