<svg height="512" viewBox="0 0 58 58" width="512" xmlns="http://www.w3.org/2000/svg"><g id="013---Cutting-Bills" fill="none" transform="translate(-1)"><path id="Shape" d="m17.36 31.14c-2.3-5.11-9.18-5.78-13.5-1.45-3.52 3.51-3.86 8.89-.71 12.02 4.29 4.29 12.23 1.86 14.42-4.56l4.73-.45 1.26-2.78-.69-3.3zm-5 7c-1.95 1.95-4.8 2.27-6.36.71s-1.24-4.42.71-6.37 4.8-2.26 6.36-.7 1.22 4.44-.73 6.39z" fill="#3b97d3"/><path id="Shape" d="m37.5 44.76c.2934101.2884894.7335832.3678003 1.1092328.1998628.3756496-.1679374.6100818-.5488366.5907672-.9598628-.1553412-.8070668.069667-1.6407037.61-2.26 1.33-1.32 2.75.09 4.08-1.24s-.09-2.74 1.23-4.07 2.74.1 4.07-1.23-.09-2.74 1.23-4.06 2.74.08 4.07-1.24-.09-2.74 1.23-4.07c.6255918-.5428665 1.4710456-.757938 2.28-.58.4099219.0107203.7848448-.2299033.9458436-.6070375.1609988-.3771343.0754406-.8143375-.2158436-1.1029625l-23-22.95c-.3751365-.37555409-.8841815-.58657331-1.415-.58657331s-1.0398635.21101922-1.415.58657331l-18.37 18.41c-.3755541.3751365-.5865733.8841815-.5865733 1.415s.2110192 1.0398635.5865733 1.415z" fill="#f9eab0"/><g fill="#4fba6f"><path id="Shape" d="m46.08 27.75c-.9495482.0212079-1.8679969-.338968-2.55-1-.1893127-.1877666-.2957983-.4433625-.2957983-.71s.1064856-.5222334.2957983-.71c.3900375-.3877236 1.0199625-.3877236 1.41 0 1.23 1.23 4.3-.4 4.63-2.76s-2.19-2.5-3.92-.77c-1.95 1.95-4.81 2.27-6.37.71s-1.28-4.42.72-6.37c3.44-3.44 7.89-.81 6.36.71-.3900375.3877236-1.0199625.3877236-1.41 0-.77-.77-2.39-.44-3.54.71-1.72 1.72-1.45 4.24.78 3.92.7656982-.1473798 1.4654954-.5322682 2-1.1 2-1.94 4.81-2.26 6.37-.7 2.78 2.74-.45 8.07-4.48 8.07z"/><path id="Shape" d="m49.89 27c-.265803.0015368-.5212812-.1028135-.71-.29l-9.9-9.9c-.3893607-.3921222-.3871222-1.0256393.005-1.415s1.0256393-.3871222 1.415.005l9.9 9.89c.2884599.2860905.3751619.7182668.219371 1.0934815-.155791.3752147-.5231059.6188811-.929371.6165185z"/><path id="Shape" d="m19.48 20.68c-.3934184-.0090382-.7449599-.2479734-.8981511-.610454-.1531913-.3624806-.0795478-.781107.1881511-1.069546l4.9-4.9c.2536586-.2536586.623374-.3527235.969878-.259878.3465041.0928454.6171546.3634959.71.71.0928455.346504-.0062194.7162194-.259878.969878l-4.9 4.9c-.1935185.1762476-.4484267.2695943-.71.26z"/><path id="Shape" d="m22.31 23.51c-.4070904-.0016145-.7725688-.2498461-.9241382-.6276713s-.0589724-.8098197.2341382-1.0923287l3.69-3.51c.4037931-.3331935.996222-.2985632 1.3584441.0794077s.3716228.9713366.0215559 1.3605923l-3.69 3.51c-.1853775.1786807-.4325305.2789747-.69.28z"/><path id="Shape" d="m26.72 24.84c-.4080911.0065002-.7791789-.2356573-.9375616-.6118162-.1583827-.3761588-.0722716-.8108211.2175616-1.0981838l4.09-4.13c.3943235-.3427927.9860783-.3242342 1.3581468.0425939.3720686.3668281.3990185.9582602.0618532 1.3574061l-4.08 4.16c-.1903421.1835286-.445623.2842028-.71.28z"/><path id="Shape" d="m29.25 27.88c-.4062651.0023626-.77358-.2413038-.929371-.6165185-.1557909-.3752147-.0690889-.807391.219371-1.0934815l4.38-4.37c.2536586-.2536586.623374-.3527235.969878-.259878.3465041.0928454.6171546.3634959.71.71.0928455.346504-.0062194.7162194-.259878.969878l-4.34 4.37c-.1984095.1973505-.4704352.3025337-.75.29z"/><path id="Shape" d="m30.8 32c-.4062651.0023626-.77358-.2413038-.929371-.6165185-.1557909-.3752147-.0690889-.807391.219371-1.0934815l5.66-5.65c.3915715-.2682489.917764-.2242828 1.2593896.1052284.3416257.3295112.404553.8537742.1506104 1.2547716l-5.65 5.7c-.1870714.1908556-.4427541.2988906-.71.3z"/><path id="Shape" d="m33.63 34.82c-.4062651.0023626-.77358-.2413038-.929371-.6165185-.1557909-.3752147-.0690889-.807391.219371-1.0934815l5.66-5.65c.3893608-.3921221 1.0228778-.3943607 1.415-.005.3921221.3893608.3943607 1.0228778.005 1.415l-5.66 5.66c-.1887188.1871865-.444197.2915368-.71.29z"/><path id="Shape" d="m36.46 37.65c-.4062651.0023626-.77358-.2413038-.929371-.6165185-.1557909-.3752147-.0690889-.807391.219371-1.0934815l5.66-5.66c.3900375-.3877236 1.0199625-.3877236 1.41 0 .1893127.1877666.2957983.4433625.2957983.71s-.1064856.5222334-.2957983.71l-5.66 5.66c-.1862606.1847442-.4376601.2888954-.7.29z"/><path id="Shape" d="m28.53 11.63c-.4062651.0023626-.77358-.2413038-.929371-.6165185-.1557909-.3752147-.0690889-.807391.219371-1.0934815l5.1-5.09c.2536586-.25365859.623374-.35272356.9698781-.25987808.346504.09284548.6171545.36349596.71.71000002.0928455.34650407-.0062195.7162195-.2598781.96987806l-5.1 5.09c-.1887188.1871865-.444197.2915368-.71.29z"/><path id="Shape" d="m30.8 15c-.4062651.0023626-.77358-.2413038-.929371-.6165185-.1557909-.3752147-.0690889-.807391.219371-1.0934815l5.66-5.65c.3967603-.3397768.9881942-.31693227 1.3575632.05243678.3693691.36936905.3922136.96080294.0524368 1.35756322l-5.65 5.66c-.1887188.1871865-.444197.2915368-.71.29z"/><path id="Shape" d="m33.63 17.85c-.4062651.0023626-.77358-.2413038-.929371-.6165185-.1557909-.3752147-.0690889-.807391.219371-1.0934815l5.66-5.65c.3900375-.3877236 1.0199625-.3877236 1.41 0 .3877236.3900375.3877236 1.0199625 0 1.41l-5.66 5.66c-.1862606.1847442-.4376601.2888954-.7.29z"/></g><path id="Shape" d="m27.86 41.64 2.91-31-1-.09c-2.7470321-.2549207-5.181437 1.7633083-5.44 4.51l-2.48 26.37c-6.42 2.19-8.85 10.12-4.56 14.42 3.13 3.12 8.51 2.81 12-.71 4.36-4.33 3.71-11.2-1.43-13.5zm-1.37 10.67c-1.95 1.95-4.81 2.27-6.37.71s-1.24-4.41.71-6.36 4.8-2.27 6.36-.71 1.25 4.41-.7 6.36z" fill="#2980ba"/><circle id="Oval" cx="26" cy="33" fill="#d1d4d1" r="1"/></g></svg>