<?xml version="1.0" encoding="iso-8859-1"?>
<!-- Generator: Adobe Illustrator 19.0.0, SVG Export Plug-In . SVG Version: 6.00 Build 0)  -->
<svg version="1.1" id="Layer_1" xmlns="http://www.w3.org/2000/svg" xmlns:xlink="http://www.w3.org/1999/xlink" x="0px" y="0px"
	 viewBox="0 0 512 512" style="enable-background:new 0 0 512 512;" xml:space="preserve">
<g>
	<path style="fill:#E64C3C;" d="M256,34.133C133.47,34.133,34.133,133.47,34.133,256S133.47,477.867,256,477.867
		S477.867,378.53,477.867,256S378.53,34.133,256,34.133z M256,443.733C152.32,443.733,68.267,359.68,68.267,256
		S152.32,68.267,256,68.267S443.733,152.32,443.733,256S359.68,443.733,256,443.733z"/>
	<path style="fill:#E64C3C;" d="M503.467,247.467H332.288c-4.002-35.635-32.119-63.753-67.755-67.755V8.533
		C264.533,3.823,260.71,0,256,0c-4.71,0-8.533,3.823-8.533,8.533v171.179c-35.635,4.002-63.753,32.119-67.755,67.755H8.533
		C3.823,247.467,0,251.29,0,256c0,4.71,3.823,8.533,8.533,8.533h171.179c4.002,35.635,32.119,63.753,67.755,67.755v171.179
		c0,4.71,3.823,8.533,8.533,8.533c4.71,0,8.533-3.823,8.533-8.533V332.288c35.635-4.002,63.753-32.119,67.755-67.755h171.179
		c4.71,0,8.533-3.823,8.533-8.533C512,251.29,508.177,247.467,503.467,247.467z M315.051,247.467h-50.517v-50.517
		C290.697,200.755,311.245,221.303,315.051,247.467z M247.467,196.949v50.517h-50.517
		C200.755,221.303,221.303,200.755,247.467,196.949z M196.949,264.533h50.517v50.517
		C221.303,311.245,200.755,290.697,196.949,264.533z M264.533,315.051v-50.517h50.517
		C311.245,290.697,290.697,311.245,264.533,315.051z"/>
</g>
<g>
</g>
<g>
</g>
<g>
</g>
<g>
</g>
<g>
</g>
<g>
</g>
<g>
</g>
<g>
</g>
<g>
</g>
<g>
</g>
<g>
</g>
<g>
</g>
<g>
</g>
<g>
</g>
<g>
</g>
</svg>
