<svg id="Capa_1" enable-background="new 0 0 512 512" height="512" viewBox="0 0 512 512" width="512" xmlns="http://www.w3.org/2000/svg"><path d="m355.856 455.398h-253.233v19.543c0 2.833 2.321 5.151 5.159 5.151h257.528z" fill="#cdbfba"/><path d="m350.511 441.436c-.066-.171-.114-.347-.148-.526-.035-.188-.053-.376-.053-.56v-9.091h-247.687v25.14h253.616z" fill="#e1d3ce"/><path d="m133.574 474.941v-19.543h-30.951v19.543c0 2.833 2.321 5.151 5.159 5.151h30.951c-2.838.001-5.159-2.318-5.159-5.151z" fill="#b9acac"/><path d="m102.623 431.259h30.951v25.14h-30.951z" fill="#cdbfba"/><path d="m372.979 22.19h-37.001v11.68c0 2.289-1.865 4.151-4.158 4.151h-17.887c-2.293 0-4.159-1.862-4.159-4.151v-11.68h-138.786v11.68c0 2.289-1.866 4.151-4.159 4.151h-17.888c-2.293 0-4.158-1.862-4.158-4.151v-11.68h-37.002c-2.837 0-5.159 2.318-5.159 5.151v40.691h275.515v-40.692c.001-2.832-2.321-5.15-5.158-5.15z" fill="#08a9f1"/><path d="m133.574 68.032v-40.692c0-2.833 2.321-5.151 5.159-5.151h-30.951c-2.837 0-5.159 2.318-5.159 5.151v40.691h30.951z" fill="#0290cf"/><path d="m350.309 97.544c0-2.288 1.866-4.15 4.159-4.15h23.67v-26.362h-275.515v365.227h247.686z" fill="#efe2dd"/><path d="m131.262 408.179v-23.205c0-1.428.988-2.627 2.312-2.977v-43.887c-1.324-.35-2.312-1.549-2.312-2.977v-23.205c0-1.428.988-2.627 2.312-2.978v-43.886c-1.324-.35-2.312-1.549-2.312-2.978v-23.205c0-1.428.988-2.627 2.312-2.977v-48.382l-7.611-7.601c-2.931-2.927-2.935-7.676-.008-10.606 2.061-2.064 5.023-2.669 7.619-1.83v-52.075l-7.611-7.6c-2.931-2.927-2.935-7.676-.008-10.606 2.061-2.064 5.023-2.669 7.619-1.83v-28.342h-30.951v365.227h30.951v-21.103c-1.325-.35-2.312-1.549-2.312-2.977z" fill="#e1d3ce"/><g fill="#cdbfba"><path d="m102.623 132.578h247.686v15h-247.686z"/><path d="m102.623 205.622h247.686v15h-247.686z"/><path d="m102.623 278.668h247.686v15h-247.686z"/><path d="m102.623 351.714h247.686v15h-247.686z"/></g><path d="m336.978 33.869c0 2.833-2.321 5.151-5.158 5.151h-17.887c-2.837 0-5.159-2.318-5.159-5.151v-28.718c0-2.832 2.321-5.151 5.159-5.151h17.887c2.837 0 5.158 2.318 5.158 5.151z" fill="#025f80"/><path d="m171.988 33.869c0 2.833-2.321 5.151-5.159 5.151h-17.888c-2.837 0-5.158-2.318-5.158-5.151v-28.718c0-2.832 2.321-5.151 5.158-5.151h17.888c2.837 0 5.159 2.318 5.159 5.151z" fill="#025f80"/><path d="m156.533 33.869v-28.718c0-2.832 2.321-5.151 5.158-5.151h-12.75c-2.837 0-5.158 2.318-5.158 5.151v28.718c0 2.833 2.321 5.151 5.158 5.151h12.75c-2.837 0-5.158-2.318-5.158-5.151z" fill="#024c67"/><path d="m315.978 111.894h-124.438c-4.142 0-7.5-3.358-7.5-7.5s3.358-7.5 7.5-7.5h124.438c4.142 0 7.5 3.358 7.5 7.5s-3.357 7.5-7.5 7.5z" fill="#017b4e"/><path d="m315.978 184.939h-124.438c-4.142 0-7.5-3.358-7.5-7.5s3.358-7.5 7.5-7.5h124.438c4.142 0 7.5 3.358 7.5 7.5s-3.357 7.5-7.5 7.5z" fill="#017b4e"/><path d="m315.978 257.985h-124.438c-4.142 0-7.5-3.358-7.5-7.5s3.358-7.5 7.5-7.5h124.438c4.142 0 7.5 3.358 7.5 7.5s-3.357 7.5-7.5 7.5z" fill="#024c67"/><path d="m160.726 262.088c0 1.7-1.393 3.091-3.095 3.091h-23.274c-1.702 0-3.095-1.391-3.095-3.091v-23.205c0-1.7 1.393-3.091 3.095-3.091h23.274c1.702 0 3.095 1.391 3.095 3.091z" fill="#fff"/><path d="m315.978 331.031h-124.438c-4.142 0-7.5-3.358-7.5-7.5s3.358-7.5 7.5-7.5h124.438c4.142 0 7.5 3.358 7.5 7.5s-3.357 7.5-7.5 7.5z" fill="#024c67"/><path d="m160.726 335.133c0 1.7-1.393 3.09-3.095 3.09h-23.274c-1.702 0-3.095-1.391-3.095-3.09v-23.205c0-1.7 1.393-3.091 3.095-3.091h23.274c1.702 0 3.095 1.391 3.095 3.091z" fill="#fff"/><path d="m315.978 404.076h-124.438c-4.142 0-7.5-3.358-7.5-7.5s3.358-7.5 7.5-7.5h124.438c4.142 0 7.5 3.358 7.5 7.5s-3.357 7.5-7.5 7.5z" fill="#024c67"/><path d="m160.726 408.179c0 1.7-1.393 3.09-3.095 3.09h-23.274c-1.702 0-3.095-1.391-3.095-3.09v-23.205c0-1.699 1.393-3.09 3.095-3.09h23.274c1.702 0 3.095 1.391 3.095 3.09z" fill="#fff"/><path d="m143.126 121.85c-1.918 0-3.836-.731-5.299-2.193l-11.864-11.847c-2.931-2.927-2.935-7.676-.008-10.606 2.927-2.932 7.676-2.934 10.606-.008l6.565 6.556 16.367-16.343c2.931-2.927 7.68-2.922 10.606.008 2.927 2.931 2.923 7.68-.008 10.606l-21.666 21.634c-1.464 1.462-3.381 2.193-5.299 2.193z" fill="#017b4e"/><path d="m143.126 193.963c-1.918 0-3.836-.731-5.299-2.193l-11.864-11.847c-2.931-2.927-2.935-7.676-.008-10.606 2.927-2.932 7.676-2.934 10.606-.008l6.565 6.556 16.367-16.342c2.931-2.927 7.68-2.923 10.606.008 2.927 2.931 2.923 7.68-.008 10.606l-21.666 21.634c-1.464 1.461-3.381 2.192-5.299 2.192z" fill="#017b4e"/><path d="m349.309 440.35c0 .493.091.982.268 1.444l25.861 67.55c.611 1.598 2.168 2.656 3.906 2.656 1.736 0 3.292-1.059 3.902-2.656l25.863-67.55c.178-.461.269-.951.269-1.444v-304.35h-60.068v304.35z" fill="#efe2dd"/><path d="m362.078 474.448 13.36 34.895c.611 1.598 2.168 2.656 3.906 2.656 1.736 0 3.292-1.059 3.902-2.656l13.362-34.895z" fill="#025f80"/><path d="m377.078 474.448h-15l13.36 34.895c.611 1.598 2.168 2.656 3.906 2.656 1.736 0 3.292-1.059 3.902-2.656l3.596-9.392z" fill="#024c67"/><path d="m409.377 135.999v-38.455c0-2.833-2.321-5.15-5.159-5.15h-49.751c-2.837 0-5.159 2.317-5.159 5.15v38.456h60.069z" fill="#fe646f"/><path d="m375.102 135.999v-38.455c0-2.833 2.321-5.15 5.158-5.15h-25.793c-2.837 0-5.159 2.317-5.159 5.15v38.456h25.794z" fill="#fd4755"/><path d="m349.309 440.35c0 .251.024.5.071.746h59.927c.046-.246.071-.495.071-.746v-305.35h-60.068v305.35z" fill="#fac600"/><path d="m371.844 134.999h15v306.096h-15z" fill="#fea613"/><path d="m321.523 33.869v-28.718c0-2.832 2.321-5.151 5.158-5.151h-12.75c-2.837 0-5.158 2.318-5.158 5.151v28.718c0 2.833 2.321 5.151 5.158 5.151h12.75c-2.836 0-5.158-2.318-5.158-5.151z" fill="#024c67"/></svg>